<svg xmlns="http://www.w3.org/2000/svg" version="1.1" xmlns:xlink="http://www.w3.org/1999/xlink" xmlns:svgjs="http://svgjs.dev/svgjs" width="1500" height="1500" viewBox="0 0 1500 1500"><rect width="1500" height="1500" fill="#ffffff"></rect><g transform="matrix(0.6666666666666666,0,0,0.6666666666666666,249.39393939393938,496.6231487651088)"><svg viewBox="0 0 396 201" data-background-color="#1a365d" preserveAspectRatio="xMidYMid meet" height="761" width="1500" xmlns="http://www.w3.org/2000/svg" xmlns:xlink="http://www.w3.org/1999/xlink"><g id="tight-bounds" transform="matrix(1,0,0,1,0.2400000000000091,-0.11482175122245053)"><svg viewBox="0 0 395.52 201.2296435024449" height="201.2296435024449" width="395.52"><g><svg viewBox="0 0 395.52 201.2296435024449" height="201.2296435024449" width="395.52"><g transform="matrix(1,0,0,1,0,122.37571888958949)"><svg viewBox="0 0 395.52 78.8539246128554" height="78.8539246128554" width="395.52"><g id="textblocktransform"><svg viewBox="0 0 395.52 78.8539246128554" height="78.8539246128554" width="395.52" id="textblock"><g><svg viewBox="0 0 395.52 56.75966669472266" height="56.75966669472266" width="395.52"><g transform="matrix(1,0,0,1,0,0)"><svg width="395.52" viewBox="2.73 -41.11 290.04999999999995 41.62" height="56.75966669472266" data-palette-color="#cdedfe"><path d="M7.67 0L7.67-23.39 2.73-23.39 2.73-28.81 7.67-28.81Q7.67-31.74 8.5-34.02 9.33-36.3 10.9-37.88 12.48-39.45 14.73-40.28 16.99-41.11 19.82-41.11L19.82-41.11Q21.8-41.11 23.71-40.73 25.61-40.36 27.08-39.65L27.08-39.65 24.51-33.57Q23.93-33.91 22.86-34.2 21.8-34.5 20.53-34.5L20.53-34.5Q18.04-34.5 16.52-33.09 14.99-31.69 14.89-28.81L14.89-28.81 24-28.81 24-23.39 14.89-23.39 14.89 0 7.67 0ZM29.56 0L29.56-28.81 36.79-28.81 36.79-24.66Q39.18-26.44 41.84-27.73 44.5-29.03 47.14-29.71L47.14-29.71 49.27-23.1Q45.09-22.68 41.93-21.23 38.77-19.78 36.79-17.14L36.79-17.14 36.79 0 29.56 0ZM53.27-14.5L53.27-14.5Q53.27-17.43 54.46-20.1 55.66-22.78 57.91-24.83 60.15-26.88 63.41-28.1 66.67-29.32 70.82-29.32L70.82-29.32Q74.95-29.32 78.25-28.09 81.56-26.86 83.87-24.71 86.18-22.56 87.41-19.65 88.64-16.75 88.64-13.43L88.64-13.43Q88.64-13.01 88.63-12.54 88.62-12.06 88.57-11.67L88.57-11.67 61.32-11.67Q61.79-10.38 62.82-9.3 63.86-8.23 65.42-7.45 66.99-6.67 69.04-6.24 71.09-5.81 73.58-5.81L73.58-5.81Q76.07-5.81 78.54-6.34 81-6.86 83.25-7.67L83.25-7.67 85.69-2.15Q84.27-1.49 82.82-0.99 81.37-0.49 79.79-0.16 78.22 0.17 76.5 0.34 74.78 0.51 72.87 0.51L72.87 0.51Q68.01 0.51 64.35-0.66 60.69-1.83 58.22-3.86 55.76-5.88 54.51-8.62 53.27-11.35 53.27-14.5ZM61.32-17.31L80.98-17.31Q80.59-18.51 79.77-19.54 78.95-20.58 77.73-21.35 76.51-22.12 74.9-22.56 73.29-23 71.36-23L71.36-23Q69.31-23 67.62-22.53 65.94-22.07 64.67-21.29 63.4-20.51 62.56-19.48 61.71-18.46 61.32-17.31L61.32-17.31ZM94.43-3.37L97.55-8.84Q100.48-7.08 104-6.25 107.51-5.42 111.2-5.42L111.2-5.42Q113.69-5.42 115.35-5.76 117.01-6.1 118.01-6.64 119.01-7.18 119.43-7.86 119.84-8.54 119.84-9.25L119.84-9.25Q119.84-10.28 118.95-11.01 118.06-11.74 116.01-11.74L116.01-11.74Q115.06-11.74 113.96-11.62 112.86-11.5 111.65-11.36 110.44-11.23 109.14-11.11 107.83-10.99 106.49-10.99L106.49-10.99Q103.56-10.99 101.49-11.62 99.43-12.26 98.14-13.35 96.84-14.45 96.26-15.95 95.67-17.46 95.67-19.19L95.67-19.19Q95.67-21.39 96.7-23.24 97.72-25.1 99.63-26.45 101.53-27.81 104.23-28.56 106.93-29.32 110.25-29.32L110.25-29.32Q111.98-29.32 113.87-29.11 115.76-28.91 117.6-28.56 119.43-28.22 121.11-27.77 122.8-27.32 124.09-26.81L124.09-26.81 121.82-21.19Q119.06-22.22 116.31-22.81 113.57-23.41 110.66-23.41L110.66-23.41Q108.64-23.41 107.23-23.11 105.83-22.8 104.95-22.3 104.07-21.8 103.67-21.15 103.26-20.51 103.26-19.8L103.26-19.8Q103.26-19.29 103.47-18.87 103.68-18.46 104.16-18.15 104.63-17.85 105.4-17.69 106.17-17.53 107.29-17.53L107.29-17.53Q108.32-17.53 109.47-17.65 110.61-17.77 111.86-17.91 113.1-18.04 114.43-18.16 115.76-18.29 117.16-18.29L117.16-18.29Q119.74-18.29 121.68-17.68 123.63-17.07 124.89-15.97 126.16-14.87 126.8-13.38 127.43-11.89 127.43-10.13L127.43-10.13Q127.43-7.86 126.38-5.91 125.33-3.96 123.26-2.53 121.18-1.1 118.1-0.29 115.01 0.51 110.95 0.51L110.95 0.51Q108.46 0.51 106.14 0.21 103.83-0.1 101.73-0.62 99.63-1.15 97.78-1.86 95.94-2.56 94.43-3.37L94.43-3.37ZM133.93 0L133.93-40.48 141.15-40.48 141.15-26.61Q143.42-27.86 146.22-28.59 149.01-29.32 152.09-29.32L152.09-29.32Q155.65-29.32 158.5-28.27 161.34-27.22 163.32-25.26 165.3-23.29 166.36-20.48 167.42-17.68 167.42-14.16L167.42-14.16 167.42 0 160.22 0 160.22-13.87Q160.22-15.92 159.56-17.61 158.9-19.31 157.63-20.53 156.36-21.75 154.54-22.42 152.72-23.1 150.43-23.1L150.43-23.1Q147.67-23.1 145.3-22.22 142.93-21.34 141.15-20L141.15-20 141.15 0 133.93 0ZM175.3 0L175.3-40.5 182.53-40.5 182.53-26.1Q183.48-26.76 184.78-27.34 186.07-27.93 187.56-28.37 189.05-28.81 190.64-29.06 192.22-29.32 193.81-29.32L193.81-29.32Q197.47-29.32 200.54-28.25 203.6-27.17 205.8-25.22 208-23.27 209.23-20.54 210.46-17.82 210.46-14.53L210.46-14.53Q210.46-11.08 209.17-8.31 207.87-5.54 205.59-3.58 203.31-1.61 200.17-0.55 197.03 0.51 193.37 0.51L193.37 0.51Q191.81 0.51 190.28 0.32 188.76 0.12 187.35-0.22 185.95-0.56 184.72-1.04 183.48-1.51 182.53-2.08L182.53-2.08 182.53 0 175.3 0ZM182.53-19.04L182.53-9.06Q183.63-8.18 184.85-7.57 186.07-6.96 187.34-6.57 188.61-6.18 189.9-5.99 191.2-5.81 192.42-5.81L192.42-5.81Q194.91-5.81 196.85-6.48 198.79-7.15 200.12-8.33 201.45-9.5 202.16-11.08 202.87-12.67 202.87-14.53L202.87-14.53Q202.87-16.26 202.17-17.8 201.48-19.34 200.17-20.5 198.86-21.66 197.02-22.33 195.18-23 192.88-23L192.88-23Q191.42-23 189.95-22.72 188.49-22.44 187.13-21.92 185.78-21.41 184.59-20.68 183.41-19.95 182.53-19.04L182.53-19.04ZM220.96-32.74L220.96-32.74Q219.88-32.74 219.02-33.04 218.15-33.35 217.54-33.87 216.93-34.4 216.6-35.1 216.27-35.79 216.27-36.57L216.27-36.57Q216.27-37.38 216.6-38.07 216.93-38.77 217.54-39.28 218.15-39.79 219.02-40.1 219.88-40.41 220.96-40.41L220.96-40.41Q222.06-40.41 222.92-40.1 223.79-39.79 224.4-39.28 225.01-38.77 225.34-38.07 225.67-37.38 225.67-36.57L225.67-36.57Q225.67-35.79 225.34-35.1 225.01-34.4 224.4-33.87 223.79-33.35 222.92-33.04 222.06-32.74 220.96-32.74ZM217.34 0L217.34-28.81 224.57-28.81 224.57 0 217.34 0ZM238.17 0L238.17-23.39 231.21-23.39 231.21-28.81 238.17-28.81 238.17-37.77 245.39-37.77 245.39-28.81 252.35-28.81 252.35-23.39 245.39-23.39 245.39 0 238.17 0ZM257.4-14.5L257.4-14.5Q257.4-17.43 258.6-20.1 259.79-22.78 262.04-24.83 264.29-26.88 267.55-28.1 270.81-29.32 274.96-29.32L274.96-29.32Q279.08-29.32 282.39-28.09 285.7-26.86 288-24.71 290.31-22.56 291.54-19.65 292.78-16.75 292.78-13.43L292.78-13.43Q292.78-13.01 292.77-12.54 292.75-12.06 292.7-11.67L292.7-11.67 265.46-11.67Q265.92-10.38 266.96-9.3 268-8.23 269.56-7.45 271.12-6.67 273.17-6.24 275.22-5.81 277.71-5.81L277.71-5.81Q280.2-5.81 282.67-6.34 285.14-6.86 287.38-7.67L287.38-7.67 289.82-2.15Q288.41-1.49 286.96-0.99 285.5-0.49 283.93-0.16 282.35 0.17 280.63 0.34 278.91 0.51 277.01 0.51L277.01 0.51Q272.15 0.51 268.49-0.66 264.82-1.83 262.36-3.86 259.89-5.88 258.65-8.62 257.4-11.35 257.4-14.5ZM265.46-17.31L285.11-17.31Q284.72-18.51 283.9-19.54 283.09-20.58 281.86-21.35 280.64-22.12 279.03-22.56 277.42-23 275.49-23L275.49-23Q273.44-23 271.76-22.53 270.07-22.07 268.8-21.29 267.53-20.51 266.69-19.48 265.85-18.46 265.46-17.31L265.46-17.31Z" opacity="1" transform="matrix(1,0,0,1,0,0)" fill="#000000" class="wordmark-text-0" data-fill-palette-color="primary" id="text-0"></path></svg></g></svg></g><g transform="matrix(1,0,0,1,75.54432,70.159261769346)"><svg viewBox="0 0 244.43135999999998 8.69466284350938" height="8.69466284350938" width="244.43135999999998"><g transform="matrix(1,0,0,1,0,0)"><svg width="244.43135999999998" viewBox="0.7 -32.35 922 32.800000000000004" height="8.69466284350938" data-palette-color="#cdedfe"><path d="M17.1-32.05L27.8 0 23.7 0 22.95-3.2 21.15-8.7 13.95-8.85 7.45-8.7 5.5-3.4 4.7 0 0.7 0 12.45-32.05 17.1-32.05ZM14.3-12L20.05-12.1 14.85-27.9 14.5-27.9 8.7-12.1 14.3-12ZM60.3-32.05L60.6-31.65 60.3-28.55 54.7-28.85 51.45-28.85 51.3-10 51.45 0 47.4 0 47.7-9.65 47.45-28.85 44.2-28.85 38.5-28.55 38.25-28.95 38.55-32.05 60.3-32.05ZM84.34-3.5L84.59-3.1 84.29 0 66.29 0 66.54-9.65 66.29-32.05 84.34-32.05 84.54-31.65 84.24-28.55 76.69-28.7 70.34-28.6 70.24-18.1 76.24-18 81.54-18.15 81.84-17.8 81.49-14.7 75.89-14.8 70.19-14.75 70.14-10 70.29-3.35 76.64-3.3 84.34-3.5ZM118.99-32.05L122.14 0 118.54 0 117.79-9.75 116.09-25.7 115.74-25.7 106.84-3.7 103.54-3.7 95.09-25.7 94.69-25.7 92.99-10.05 92.14 0 88.74 0 92.09-32.05 96.64-32.05 98.29-27.15 105.24-8.9 105.54-8.9 112.84-27.45 114.49-32.05 118.99-32.05ZM139.64-32.1Q144.34-32.1 146.89-29.68 149.44-27.25 149.44-22.7L149.44-22.7Q149.44-17.35 146.26-14.3 143.09-11.25 137.49-11.25L137.49-11.25 133.69-11.25 133.69-10 133.89 0 129.84 0 130.09-9.65 129.84-32.05 139.64-32.1ZM138.99-14.5Q142.09-15 143.71-17 145.34-19 145.34-22.35L145.34-22.35Q145.34-28.55 138.74-28.8L138.74-28.8 133.89-28.65 133.74-14.6 138.99-14.5ZM171.53-3.35L171.84-3 171.49 0 155.69 0 155.94-9.65 155.69-32.05 159.78-32.05 159.53-10 159.69-3.35 171.53-3.35ZM189.08-32.05L199.78 0 195.68 0 194.93-3.2 193.13-8.7 185.93-8.85 179.43-8.7 177.48-3.4 176.68 0 172.68 0 184.43-32.05 189.08-32.05ZM186.28-12L192.03-12.1 186.83-27.9 186.48-27.9 180.68-12.1 186.28-12ZM221.28-32.05L221.58-31.65 221.28-28.55 215.68-28.85 212.43-28.85 212.28-10 212.43 0 208.38 0 208.68-9.65 208.43-28.85 205.18-28.85 199.48-28.55 199.23-28.95 199.53-32.05 221.28-32.05ZM245.33-3.5L245.58-3.1 245.28 0 227.28 0 227.53-9.65 227.28-32.05 245.33-32.05 245.53-31.65 245.23-28.55 237.68-28.7 231.33-28.6 231.23-18.1 237.23-18 242.53-18.15 242.83-17.8 242.48-14.7 236.88-14.8 231.18-14.75 231.13-10 231.28-3.35 237.63-3.3 245.33-3.5ZM269.27-28.7L263.67-28.6 263.57-17.45 268.97-17.35 274.17-17.5 274.47-17.1 274.12-14.05 268.57-14.2 263.52-14.15 263.47-10 263.67 0 259.62 0 259.87-9.65 259.62-32.05 276.67-32.05 276.97-31.65 276.62-28.45 269.27-28.7ZM292.87-32.35Q299.47-32.35 303-28.3 306.52-24.25 306.52-16.65L306.52-16.65Q306.52-8.45 302.77-4.03 299.02 0.4 292.07 0.4L292.07 0.4Q285.57 0.4 282.05-3.8 278.52-8 278.52-15.75L278.52-15.75Q278.52-23.75 282.25-28.05 285.97-32.35 292.87-32.35L292.87-32.35ZM292.62-29.1Q282.62-29.1 282.62-16.2L282.62-16.2Q282.62-9.35 285.05-6.05 287.47-2.75 292.37-2.75L292.37-2.75Q302.37-2.75 302.37-15.9L302.37-15.9Q302.37-22.6 299.94-25.85 297.52-29.1 292.62-29.1L292.62-29.1ZM326.07-12.95Q329.37-7.5 334.37-0.95L334.37-0.95 334.32-0.45Q332.52 0.25 330.62 0.45L330.62 0.45 330.07 0.1Q325.97-6.05 322.72-11.9L322.72-11.9 316.87-11.9 316.87-10 317.07 0 313.02 0 313.27-9.65 313.02-32.05 322.82-32.1Q327.52-32.1 330.09-29.73 332.67-27.35 332.67-22.95L332.67-22.95Q332.67-19.65 330.94-17.03 329.22-14.4 326.07-12.95L326.07-12.95ZM317.07-28.65L316.92-15.3 322.92-15.15Q328.52-16.75 328.52-22.6L328.52-22.6Q328.52-25.65 326.87-27.18 325.22-28.7 321.92-28.8L321.92-28.8 317.07-28.65ZM358.66-28.7L353.06-28.6 352.96-17.45 358.36-17.35 363.56-17.5 363.86-17.1 363.51-14.05 357.96-14.2 352.91-14.15 352.86-10 353.06 0 349.01 0 349.26-9.65 349.01-32.05 366.06-32.05 366.36-31.65 366.01-28.45 358.66-28.7ZM383.76-12.95Q387.06-7.5 392.06-0.95L392.06-0.95 392.01-0.45Q390.21 0.25 388.31 0.45L388.31 0.45 387.76 0.1Q383.66-6.05 380.41-11.9L380.41-11.9 374.56-11.9 374.56-10 374.76 0 370.71 0 370.96-9.65 370.71-32.05 380.51-32.1Q385.21-32.1 387.79-29.73 390.36-27.35 390.36-22.95L390.36-22.95Q390.36-19.65 388.63-17.03 386.91-14.4 383.76-12.95L383.76-12.95ZM374.76-28.65L374.61-15.3 380.61-15.15Q386.21-16.75 386.21-22.6L386.21-22.6Q386.21-25.65 384.56-27.18 382.91-28.7 379.61-28.8L379.61-28.8 374.76-28.65ZM416.51-3.5L416.76-3.1 416.46 0 398.46 0 398.71-9.65 398.46-32.05 416.51-32.05 416.71-31.65 416.41-28.55 408.86-28.7 402.51-28.6 402.41-18.1 408.41-18 413.71-18.15 414.01-17.8 413.66-14.7 408.06-14.8 402.36-14.75 402.31-10 402.46-3.35 408.81-3.3 416.51-3.5ZM431.26-32.3Q434.71-32.3 438.41-30.8L438.41-30.8 437.76-26.95 437.06-26.75Q435.61-27.85 433.98-28.45 432.36-29.05 430.76-29.05L430.76-29.05Q428.91-29.05 427.53-28.3 426.16-27.55 425.43-26.35 424.71-25.15 424.71-23.85L424.71-23.85Q424.71-22.5 425.53-21.48 426.36-20.45 427.61-19.7 428.86-18.95 431.01-17.9L431.01-17.9Q433.71-16.65 435.36-15.58 437.01-14.5 438.18-12.85 439.36-11.2 439.36-8.85L439.36-8.85Q439.36-6.35 438.01-4.25 436.66-2.15 434.21-0.9 431.76 0.35 428.61 0.35L428.61 0.35Q426.51 0.35 424.23-0.23 421.96-0.8 420.01-1.9L420.01-1.9 420.51-6 421.06-6.25Q422.81-4.55 424.93-3.73 427.06-2.9 429.01-2.9L429.01-2.9Q430.91-2.9 432.38-3.65 433.86-4.4 434.63-5.65 435.41-6.9 435.41-8.3L435.41-8.3Q435.41-10.4 433.81-11.68 432.21-12.95 428.96-14.45L428.96-14.45Q426.31-15.75 424.71-16.78 423.11-17.8 421.96-19.43 420.81-21.05 420.81-23.4L420.81-23.4Q420.81-25.85 422.13-27.9 423.46-29.95 425.83-31.13 428.21-32.3 431.26-32.3L431.26-32.3ZM471-32.05L470.8-10 470.9 0 466.95 0 467.15-9.65 467.1-14.45 458.2-14.5 450.05-14.45 450-10 450.15 0 446.2 0 446.35-9.65 446.2-32.05 450.2-32.05 450.05-17.85 458.55-17.8 467.1-17.85 466.95-32.05 471-32.05ZM500.2-32.25Q507.05-32.25 510.7-28.35 514.35-24.45 514.35-17.15L514.35-17.15Q514.35-8.7 510.4-4.2 506.45 0.3 499.05 0.3L499.05 0.3Q497 0.3 494.07 0.23 491.15 0.15 488.65 0L488.65 0 488.6 0 488.85-9.65 488.6-32.05 488.65-32.05 500.2-32.25ZM499.7-3.05Q504.8-3.05 507.52-6.38 510.25-9.7 510.25-16.3L510.25-16.3Q510.25-28.9 499.9-28.9L499.9-28.9Q496.75-28.9 492.65-28.7L492.65-28.7 492.45-10 492.6-3.35Q494.15-3.2 496.32-3.13 498.5-3.05 499.7-3.05L499.7-3.05ZM525-32.05L524.75-10 524.95 0 520.89 0 521.14-9.65 520.89-32.05 525-32.05ZM559.14-32.15L558.89-9.4 558.99 0 554.79 0 538.19-25.65 537.94-25.65 537.89-10.55 537.94 0 534.34 0 534.49-9.5 534.39-32.05 538.54-32.05 555.09-6.4 555.44-6.4 555.39-31.85 559.14-32.15ZM572.54-32.05L572.29-10 572.49 0 568.44 0 568.69-9.65 568.44-32.05 572.54-32.05ZM606.69-32.15L606.44-9.4 606.54 0 602.34 0 585.74-25.65 585.49-25.65 585.44-10.55 585.49 0 581.89 0 582.04-9.5 581.94-32.05 586.09-32.05 602.64-6.4 602.99-6.4 602.94-31.85 606.69-32.15ZM627.98-32.3Q633.03-32.3 637.38-30.05L637.38-30.05 636.58-26.25 636.08-26.15Q633.68-27.65 631.66-28.3 629.63-28.95 627.38-28.95L627.38-28.95Q616.53-28.95 616.53-15.55L616.53-15.55Q616.53-9.1 619.06-6.08 621.58-3.05 626.88-3.05L626.88-3.05Q628.28-3.05 629.71-3.3 631.13-3.55 633.38-4.25L633.38-4.25 633.48-8 633.43-12.8 637.18-13.1 637.08-8.55 637.28-1.55Q634.03-0.55 631.53-0.1 629.03 0.35 626.68 0.35L626.68 0.35Q619.53 0.35 615.96-3.7 612.38-7.75 612.38-15.4L612.38-15.4Q612.38-23.65 616.43-27.98 620.48-32.3 627.98-32.3L627.98-32.3ZM671.43-3.5L671.68-3.1 671.38 0 653.38 0 653.63-9.65 653.38-32.05 671.43-32.05 671.63-31.65 671.33-28.55 663.78-28.7 657.43-28.6 657.33-18.1 663.33-18 668.63-18.15 668.93-17.8 668.58-14.7 662.98-14.8 657.28-14.75 657.23-10 657.38-3.35 663.73-3.3 671.43-3.5ZM700.33-32.05L690.18-16.7 701.13 0 696.28 0 694.93-2.6 687.48-13.55 679.83-2.35 678.58 0 674.28 0 685.18-16.2 674.68-32.05 679.53-32.05 680.88-29.5 687.78-19.25 694.68-29.55 695.98-32.05 700.33-32.05ZM716.97-32.1Q721.67-32.1 724.22-29.68 726.77-27.25 726.77-22.7L726.77-22.7Q726.77-17.35 723.6-14.3 720.42-11.25 714.82-11.25L714.82-11.25 711.02-11.25 711.02-10 711.22 0 707.17 0 707.42-9.65 707.17-32.05 716.97-32.1ZM716.32-14.5Q719.42-15 721.05-17 722.67-19 722.67-22.35L722.67-22.35Q722.67-28.55 716.07-28.8L716.07-28.8 711.22-28.65 711.07-14.6 716.32-14.5ZM751.22-3.5L751.47-3.1 751.17 0 733.17 0 733.42-9.65 733.17-32.05 751.22-32.05 751.42-31.65 751.12-28.55 743.57-28.7 737.22-28.6 737.12-18.1 743.12-18 748.42-18.15 748.72-17.8 748.37-14.7 742.77-14.8 737.07-14.75 737.02-10 737.17-3.35 743.52-3.3 751.22-3.5ZM770.32-12.95Q773.62-7.5 778.62-0.95L778.62-0.95 778.57-0.45Q776.77 0.25 774.87 0.45L774.87 0.45 774.32 0.1Q770.22-6.05 766.97-11.9L766.97-11.9 761.12-11.9 761.12-10 761.32 0 757.27 0 757.52-9.65 757.27-32.05 767.07-32.1Q771.77-32.1 774.34-29.73 776.92-27.35 776.92-22.95L776.92-22.95Q776.92-19.65 775.19-17.03 773.47-14.4 770.32-12.95L770.32-12.95ZM761.32-28.65L761.17-15.3 767.17-15.15Q772.77-16.75 772.77-22.6L772.77-22.6Q772.77-25.65 771.12-27.18 769.47-28.7 766.17-28.8L766.17-28.8 761.32-28.65ZM789.12-32.05L788.87-10 789.07 0 785.02 0 785.27-9.65 785.02-32.05 789.12-32.05ZM816.46-3.5L816.71-3.1 816.41 0 798.41 0 798.66-9.65 798.41-32.05 816.46-32.05 816.66-31.65 816.36-28.55 808.81-28.7 802.46-28.6 802.36-18.1 808.36-18 813.66-18.15 813.96-17.8 813.61-14.7 808.01-14.8 802.31-14.75 802.26-10 802.41-3.35 808.76-3.3 816.46-3.5ZM847.36-32.15L847.11-9.4 847.21 0 843.01 0 826.41-25.65 826.16-25.65 826.11-10.55 826.16 0 822.56 0 822.71-9.5 822.61-32.05 826.76-32.05 843.31-6.4 843.66-6.4 843.61-31.85 847.36-32.15ZM867.26-32.3Q872.31-32.3 876.01-29.9L876.01-29.9 875.21-26.25 874.76-26.15Q871.41-28.95 867.06-28.95L867.06-28.95Q862.31-28.95 859.76-25.68 857.21-22.4 857.21-16.1L857.21-16.1Q857.21-9.75 859.76-6.4 862.31-3.05 866.96-3.05L866.96-3.05Q869.16-3.05 871.33-3.85 873.51-4.65 875.31-6.1L875.31-6.1 875.81-5.85 875.46-2.05Q871.11 0.35 866.61 0.35L866.61 0.35Q860.16 0.35 856.61-3.83 853.06-8 853.06-15.75L853.06-15.75Q853.06-23.7 856.76-28 860.46-32.3 867.26-32.3L867.26-32.3ZM899.86-3.5L900.11-3.1 899.81 0 881.81 0 882.06-9.65 881.81-32.05 899.86-32.05 900.06-31.65 899.76-28.55 892.21-28.7 885.86-28.6 885.76-18.1 891.76-18 897.06-18.15 897.36-17.8 897.01-14.7 891.41-14.8 885.71-14.75 885.66-10 885.81-3.35 892.16-3.3 899.86-3.5ZM914.6-32.3Q918.05-32.3 921.75-30.8L921.75-30.8 921.1-26.95 920.4-26.75Q918.95-27.85 917.33-28.45 915.7-29.05 914.1-29.05L914.1-29.05Q912.25-29.05 910.88-28.3 909.5-27.55 908.78-26.35 908.05-25.15 908.05-23.85L908.05-23.85Q908.05-22.5 908.88-21.48 909.7-20.45 910.95-19.7 912.2-18.95 914.35-17.9L914.35-17.9Q917.05-16.65 918.7-15.58 920.35-14.5 921.53-12.85 922.7-11.2 922.7-8.85L922.7-8.85Q922.7-6.35 921.35-4.25 920-2.15 917.55-0.9 915.1 0.35 911.95 0.35L911.95 0.35Q909.85 0.35 907.58-0.23 905.3-0.8 903.35-1.9L903.35-1.9 903.85-6 904.4-6.25Q906.15-4.55 908.28-3.73 910.4-2.9 912.35-2.9L912.35-2.9Q914.25-2.9 915.73-3.65 917.2-4.4 917.98-5.65 918.75-6.9 918.75-8.3L918.75-8.3Q918.75-10.4 917.15-11.68 915.55-12.95 912.3-14.45L912.3-14.45Q909.65-15.75 908.05-16.78 906.45-17.8 905.3-19.43 904.15-21.05 904.15-23.4L904.15-23.4Q904.15-25.85 905.48-27.9 906.8-29.95 909.18-31.13 911.55-32.3 914.6-32.3L914.6-32.3Z" opacity="1" transform="matrix(1,0,0,1,0,0)" fill="#000000" class="slogan-text-1" data-fill-palette-color="secondary" id="text-1"></path></svg></g></svg></g></svg></g></svg></g><g transform="matrix(1,0,0,1,143.2726191847771,0)"><svg viewBox="0 0 108.97476163044576 108.97612381496614" height="108.97612381496614" width="108.97476163044576"><g><svg xmlns="http://www.w3.org/2000/svg" xmlns:xlink="http://www.w3.org/1999/xlink" version="1.1" x="0" y="0" viewBox="10 10.213000000000001 80 80.001" style="enable-background:new 0 0 100 100;" xml:space="preserve" height="108.97612381496614" width="108.97476163044576" class="icon-icon-0" data-fill-palette-color="accent" id="icon-0"><path d="M41.375 47.672C29.922 50.794 21.15 60.353 19.027 72.023c-0.099 0.543 0.262 1.063 0.805 1.162 0.061 0.012 0.121 0.017 0.18 0.017 0.474 0 0.895-0.338 0.983-0.821 1.986-10.917 10.192-19.858 20.906-22.779 0.533-0.146 0.847-0.695 0.702-1.228C42.458 47.84 41.909 47.522 41.375 47.672z" fill="#000000" data-fill-palette-color="accent"></path><path d="M89 90.214c0.552 0 1-0.447 1-1v-7.288c0-0.553-0.448-1-1-1h-0.758v-2.01c0-20.38-16.027-37.085-36.139-38.181 2.316-0.858 3.974-3.084 3.974-5.694 0-3.351-2.726-6.077-6.077-6.077s-6.077 2.727-6.077 6.077c0 2.611 1.658 4.836 3.974 5.694-20.112 1.096-36.139 17.801-36.139 38.181v2.01H11c-0.552 0-1 0.447-1 1v7.288c0 0.553 0.448 1 1 1H89zM88 88.214H12v-5.288h76V88.214zM45.923 35.041c0-2.248 1.829-4.077 4.077-4.077s4.077 1.829 4.077 4.077S52.248 39.118 50 39.118 45.923 37.289 45.923 35.041zM13.758 78.916c0-19.983 16.258-36.241 36.242-36.241s36.242 16.258 36.242 36.241v2.01H13.758V78.916z" fill="#000000" data-fill-palette-color="accent"></path><path d="M46.175 18.671c2.332 0 4.229-1.896 4.229-4.229s-1.897-4.229-4.229-4.229c-0.552 0-1 0.447-1 1s0.448 1 1 1c1.229 0 2.229 1 2.229 2.229s-1 2.229-2.229 2.229c-2.332 0-4.228 1.896-4.228 4.228 0 2.332 1.896 4.229 4.228 4.229 0.552 0 1-0.447 1-1s-0.448-1-1-1c-1.229 0-2.228-1-2.228-2.229S44.947 18.671 46.175 18.671z" fill="#000000" data-fill-palette-color="accent"></path><path d="M55.578 18.671c2.332 0 4.229-1.896 4.229-4.229s-1.897-4.229-4.229-4.229c-0.552 0-1 0.447-1 1s0.448 1 1 1c1.229 0 2.229 1 2.229 2.229s-1 2.229-2.229 2.229c-2.332 0-4.228 1.896-4.228 4.228 0 2.332 1.896 4.229 4.228 4.229 0.552 0 1-0.447 1-1s-0.448-1-1-1c-1.229 0-2.228-1-2.228-2.229S54.349 18.671 55.578 18.671z" fill="#000000" data-fill-palette-color="accent"></path></svg></g></svg></g><g></g></svg></g><defs></defs></svg><rect width="395.52" height="201.2296435024449" fill="none" stroke="none" visibility="hidden"></rect></g></svg></g></svg>